HIERARCHY
ROOT hip
{
  OFFSET 0 0 0
  CHANNELS 6 Xposition Yposition Zposition Zrotation Yrotation Xrotation
  JOINT abdomen
  {
    OFFSET 0 20.6881 -0.73152
    CHANNELS 3 Zrotation Xrotation Yrotation
    JOINT chest
    {
      OFFSET 0 11.7043 -0.48768
      CHANNELS 3 Zrotation Xrotation Yrotation
      JOINT neck
      {
        OFFSET 0 22.1894 -2.19456
        CHANNELS 3 Zrotation Xrotation Yrotation
        JOINT head
        {
          OFFSET -0.24384 7.07133 1.2192
          CHANNELS 3 Zrotation Xrotation Yrotation
          JOINT leftEye
          {
            OFFSET 4.14528 8.04674 8.04672
            CHANNELS 3 Zrotation Xrotation Yrotation
            End Site
            {
              OFFSET 1 0 0
            }
          }
          JOINT rightEye
          {
            OFFSET -3.6576 8.04674 8.04672
            CHANNELS 3 Zrotation Xrotation Yrotation
            End Site
            {
              OFFSET 1 0 0
            }
          }
        }
      }
      JOINT rCollar
      {
        OFFSET -2.68224 19.2634 -4.8768
        CHANNELS 3 Zrotation Xrotation Yrotation
        JOINT rShldr
        {
          OFFSET -8.77824 -1.95073 1.46304
          CHANNELS 3 Zrotation Xrotation Yrotation
          JOINT rForeArm
          {
            OFFSET -28.1742 -1.7115 0.48768
            CHANNELS 3 Zrotation Xrotation Yrotation
            JOINT rHand
            {
              OFFSET -22.5879 0.773209 7.07136
              CHANNELS 3 Zrotation Xrotation Yrotation
              JOINT rThumb1
              {
                OFFSET -1.2192 -0.487915 3.41376
                CHANNELS 3 Zrotation Xrotation Yrotation
                JOINT rThumb2
                {
                  OFFSET -3.37035 -0.52449 3.41376
                  CHANNELS 3 Zrotation Xrotation Yrotation
                  End Site
                  {
                    OFFSET -1.78271 -1.18214 1.43049
                  }
                }
              }
              JOINT rIndex1
              {
                OFFSET -7.75947 0.938293 5.60832
                CHANNELS 3 Zrotation Xrotation Yrotation
                JOINT rIndex2
                {
                  OFFSET -2.54057 -0.884171 1.56538
                  CHANNELS 3 Zrotation Xrotation Yrotation
                  End Site
                  {
                    OFFSET -1.62519 -0.234802 1.16502
                  }
                }
              }
              JOINT rMid1
              {
                OFFSET -8.24714 1.18213 3.41376
                CHANNELS 3 Zrotation Xrotation Yrotation
                JOINT rMid2
                {
                  OFFSET -3.10165 -0.590103 1.0647
                  CHANNELS 3 Zrotation Xrotation Yrotation
                  End Site
                  {
                    OFFSET -2.48547 -0.328903 0.83742
                  }
                }
              }
              JOINT rRing1
              {
                OFFSET -8.82822 0.546677 1.51678
                CHANNELS 3 Zrotation Xrotation Yrotation
                JOINT rRing2
                {
                  OFFSET -2.60934 -0.819778 -0.0198488
                  CHANNELS 3 Zrotation Xrotation Yrotation
                  End Site
                  {
                    OFFSET -2.33842 -0.294052 0.168128
                  }
                }
              }
              JOINT rPinky1
              {
                OFFSET -8.27202 -0.0477905 -0.4584
                CHANNELS 3 Zrotation Xrotation Yrotation
                JOINT rPinky2
                {
                  OFFSET -1.82734 -0.647385 -0.700984
                  CHANNELS 3 Zrotation Xrotation Yrotation
                  End Site
                  {
                    OFFSET -1.69225 -0.51767 -0.607171
                  }
                }
              }
            }
          }
        }
      }
      JOINT lCollar
      {
        OFFSET 2.68224 19.2634 -4.8768
        CHANNELS 3 Zrotation Xrotation Yrotation
        JOINT lShldr
        {
          OFFSET 8.77824 -1.95073 1.46304
          CHANNELS 3 Zrotation Xrotation Yrotation
          JOINT lForeArm
          {
            OFFSET 28.1742 -1.7115 0.48768
            CHANNELS 3 Zrotation Xrotation Yrotation
            JOINT lHand
            {
              OFFSET 22.5879 0.773209 7.07136
              CHANNELS 3 Zrotation Xrotation Yrotation
              JOINT lThumb1
              {
                OFFSET 1.2192 -0.487915 3.41376
                CHANNELS 3 Zrotation Xrotation Yrotation
                JOINT lThumb2
                {
                  OFFSET 3.37035 -0.52449 3.41376
                  CHANNELS 3 Zrotation Xrotation Yrotation
                  End Site
                  {
                    OFFSET 1.78271 -1.18214 1.43049
                  }
                }
              }
              JOINT lIndex1
              {
                OFFSET 7.75947 0.938293 5.60832
                CHANNELS 3 Zrotation Xrotation Yrotation
                JOINT lIndex2
                {
                  OFFSET 2.54057 -0.884171 1.56538
                  CHANNELS 3 Zrotation Xrotation Yrotation
                  End Site
                  {
                    OFFSET 1.62519 -0.234802 1.16502
                  }
                }
              }
              JOINT lMid1
              {
                OFFSET 8.24714 1.18213 3.41376
                CHANNELS 3 Zrotation Xrotation Yrotation
                JOINT lMid2
                {
                  OFFSET 3.10165 -0.590103 1.0647
                  CHANNELS 3 Zrotation Xrotation Yrotation
                  End Site
                  {
                    OFFSET 2.48547 -0.328903 0.83742
                  }
                }
              }
              JOINT lRing1
              {
                OFFSET 8.82822 0.546677 1.51678
                CHANNELS 3 Zrotation Xrotation Yrotation
                JOINT lRing2
                {
                  OFFSET 2.60934 -0.819778 -0.0198488
                  CHANNELS 3 Zrotation Xrotation Yrotation
                  End Site
                  {
                    OFFSET 2.33842 -0.294052 0.168128
                  }
                }
              }
              JOINT lPinky1
              {
                OFFSET 8.27202 -0.0477905 -0.4584
                CHANNELS 3 Zrotation Xrotation Yrotation
                JOINT lPinky2
                {
                  OFFSET 1.82734 -0.647385 -0.700984
                  CHANNELS 3 Zrotation Xrotation Yrotation
                  End Site
                  {
                    OFFSET 1.69225 -0.51767 -0.607171
                  }
                }
              }
            }
          }
        }
      }
    }
  }
  JOINT rButtock
  {
    OFFSET -8.77824 4.35084 1.2192
    CHANNELS 3 Zrotation Xrotation Yrotation
    JOINT rThigh
    {
      OFFSET 0 -1.70687 -2.19456
      CHANNELS 3 Zrotation Xrotation Yrotation
      JOINT rShin
      {
        OFFSET 0 -36.8199 0.73152
        CHANNELS 3 Zrotation Xrotation Yrotation
        JOINT rFoot
        {
          OFFSET 0.73152 -45.1104 -5.12064
          CHANNELS 3 Zrotation Xrotation Yrotation
          End Site
          {
            OFFSET -1.1221 -3.69964 12.103
          }
        }
      }
    }
  }
  JOINT lButtock
  {
    OFFSET 8.77824 4.35084 1.2192
    CHANNELS 3 Zrotation Xrotation Yrotation
    JOINT lThigh
    {
      OFFSET 0 -1.70687 -2.19456
      CHANNELS 3 Zrotation Xrotation Yrotation
      JOINT lShin
      {
        OFFSET 0 -36.8199 0.73152
        CHANNELS 3 Zrotation Xrotation Yrotation
        JOINT lFoot
        {
          OFFSET -0.73152 -45.1104 -5.12064
          CHANNELS 3 Zrotation Xrotation Yrotation
          End Site
          {
            OFFSET 1.1221 -3.69964 12.103
          }
        }
      }
    }
  }
}
MOTION
Frames:	4
Frame Time:	0.03333
-2.8645540111018835 39.21265902508222 18.210317526351208 0.8118998408317566 16.894397735595703 5.238699913024902 -9.46889877319336 8.253510475158691 -6.241519927978516 6.376699924468994 -7.417429447174072 -1.5313999652862549 -10.62669849395752 21.944299697875977 -18.320598602294922 18.49919891357422 -17.50950050354004 -33.34990310668945 -0.0 0.0 -0.0 -0.0 0.0 -0.0 -3.816665408197528e-14 -3.816665408197528e-14 -2.162777064645266e-13 67.04759979248047 38.49629592895508 -3.0009899139404297 -16.112098693847656 -8.792078971862793 29.909198760986328 -0.006171339191496372 2.26177978515625 0.3180359899997711 5.324630181213763e-10 -5.502741040608328e-10 3.4877323251691905e-10 9.2216995151162e-10 -9.51316581065953e-10 6.023143095390537e-10 5.324757301750083e-10 -5.502741040608328e-10 3.4876687649010307e-10 7.7309088706970215 5.474880218505859 0.41731396317481995 5.324630181213763e-10 -5.502613920072008e-10 3.4877961629931065e-10 2.9055399894714355 0.9651829600334167 0.10290198773145676 5.324757301750083e-10 -5.502613920072008e-10 3.487859723261266e-10 10.27859878540039 0.73180091381073 0.025912299752235413 5.324630181213763e-10 -5.502613920072008e-10 3.487923283529426e-10 2.2216696739196777 -0.7334870100021362 -0.2089199721813202 -3.816665408197528e-14 -3.816665408197528e-14 -2.162777064645266e-13 -76.34849548339844 37.31779861450195 2.7751901149749756 23.995899200439453 -19.090900421142578 -49.585296630859375 0.0009251689771190286 -0.9494679570198059 0.1335189938545227 3.43817946335534e-10 9.751325302786995e-10 1.420359274639793e-09 5.918121548376121e-10 1.6810248748555523e-09 2.45606868176651e-09 3.438052065263264e-10 9.751198737362188e-10 1.4203720422045762e-09 -7.7309088706970215 5.474880218505859 -0.41731396317481995 3.438052065263264e-10 9.751198737362188e-10 1.420359274639793e-09 -2.9055399894714355 0.9651829600334167 -0.10290198773145676 3.43817946335534e-10 9.751325302786995e-10 1.420359274639793e-09 -10.27859878540039 0.73180091381073 -0.025912299752235413 3.43817946335534e-10 9.751325302786995e-10 1.420359274639793e-09 -2.2216696739196777 -0.7334870100021362 0.2089199721813202 -0.0 0.0 -0.0 -35.56180191040039 -60.52519989013672 -33.04379653930664 -2.0435500144958496 70.2249984741211 2.63100004196167 2.5421695709228516 -7.620370864868164 13.494699478149414 -0.0 0.0 -0.0 6.930839538574219 7.832571029663086 0.751926064491272 -0.050553906708955765 35.649505615234375 -2.2361698150634766 21.767398834228516 -20.79619789123535 40.021095275878906
-2.8624340671675452 39.17535936202478 18.217765977708186 0.8829998970031738 16.71160125732422 5.325099945068359 -9.58864974975586 8.273360252380371 -6.865019798278809 6.64139986038208 -7.364599704742432 -1.6957699060440063 -10.711299896240234 22.305898666381836 -18.602699279785156 18.906299591064453 -17.712200164794922 -33.860198974609375 -0.0 0.0 -0.0 -0.0 0.0 -0.0 -7.633330816395056e-14 -8.905552619127566e-14 1.9719437942353896e-13 67.19120025634766 38.772804260253906 -2.981949806213379 -15.909097671508789 -8.602359771728516 29.482500076293945 -0.009350629523396492 2.762589931488037 0.3885590136051178 -8.548058094692834e-11 -7.708010341112015e-10 1.1023801871345995e-09 -1.4354478716782637e-10 -1.3379829466586557e-09 1.9077728286021056e-09 -8.546786195440248e-11 -7.708010341112015e-10 1.1023674195698163e-09 7.7309088706970215 5.474880218505859 0.41731396317481995 -8.548058094692834e-11 -7.708010341112015e-10 1.1023674195698163e-09 2.9055399894714355 0.9651829600334167 0.10290198773145676 -8.546786195440248e-11 -7.708010341112015e-10 1.1023801871345995e-09 10.27859878540039 0.73180091381073 0.025912299752235413 -8.548058094692834e-11 -7.708010341112015e-10 1.1023929546993827e-09 2.2216696739196777 -0.7334870100021362 -0.2089199721813202 -7.633330816395056e-14 -8.905552619127566e-14 1.9719437942353896e-13 -77.00669860839844 36.02949905395508 3.5378596782684326 23.359500885009766 -17.94569969177246 -47.651893615722656 0.0011273998534306884 0.34881100058555603 -0.04899119585752487 1.4211989918244683e-10 -2.3691315576002125e-10 8.782719551625462e-10 2.44241155078484e-10 -4.1289957564139e-10 1.517607928214204e-09 1.4210717325102706e-10 -2.3691315576002125e-10 8.782783389449378e-10 -7.7309088706970215 5.474880218505859 -0.41731396317481995 1.4211989918244683e-10 -2.3691315576002125e-10 8.782719551625462e-10 -2.9055399894714355 0.9651829600334167 -0.10290198773145676 1.4211989918244683e-10 -2.369004159508137e-10 8.782719551625462e-10 -10.27859878540039 0.73180091381073 -0.025912299752235413 1.421326251138666e-10 -2.369004159508137e-10 8.782656268913058e-10 -2.2216696739196777 -0.7334870100021362 0.2089199721813202 -0.0 0.0 -0.0 -35.47760009765625 -60.75519943237305 -32.866798400878906 -2.0596699714660645 70.3364028930664 2.648829698562622 2.551229953765869 -7.640079498291016 13.506499290466309 -0.0 0.0 -0.0 6.844559192657471 7.903099536895752 0.9104251265525818 -0.05227609723806381 35.5984992980957 -2.2410497665405273 21.830698013305664 -20.796600341796875 40.11609649658203
-2.801070286962402 39.14837328461406 18.219484851050158 0.7364999055862427 16.464599609375 5.286899566650391 -9.696470260620117 8.329090118408203 -7.431758403778076 6.885319709777832 -7.257660388946533 -1.8497098684310913 -10.822198867797852 22.674598693847656 -18.789199829101562 19.455795288085938 -18.07400131225586 -34.15700149536133 -0.0 0.0 -0.0 -0.0 0.0 -0.0 -2.5444436054650188e-14 -1.0177774421860075e-13 1.2722218027325094e-13 67.34729766845703 38.89869689941406 -3.022049903869629 -15.812701225280762 -8.514169692993164 29.278799057006836 -0.012625499628484249 3.2137198448181152 0.4521338939666748 -1.357079032482389e-10 -3.634992029599715e-10 6.450164291571525e-10 -2.317352004732598e-10 -6.323833123822453e-10 1.1168580504872239e-09 -1.357079032482389e-10 -3.634992029599715e-10 6.450101008859122e-10 7.7309088706970215 5.474880218505859 0.41731396317481995 -1.357079032482389e-10 -3.634992029599715e-10 6.450164291571525e-10 2.9055399894714355 0.9651829600334167 0.10290198773145676 -1.357079032482389e-10 -3.635119427691791e-10 6.450164291571525e-10 10.27859878540039 0.73180091381073 0.025912299752235413 -1.3572061530187085e-10 -3.635119427691791e-10 6.450228129395441e-10 2.2216696739196777 -0.7334870100021362 -0.2089199721813202 -2.5444436054650188e-14 -1.0177774421860075e-13 1.2722218027325094e-13 -77.53799438476562 34.86979675292969 4.146130084991455 22.73809814453125 -16.90760040283203 -45.832298278808594 0.001897829701192677 1.1432100534439087 -0.16067999601364136 2.8996480216925136e-10 4.130522590628516e-10 6.250934769802541e-10 5.019296644981353e-10 7.150013914269948e-10 1.0773683056797267e-09 2.8996480216925136e-10 4.130522590628516e-10 6.250998052514944e-10 -7.7309088706970215 5.474880218505859 -0.41731396317481995 2.8996480216925136e-10 4.130522590628516e-10 6.250998052514944e-10 -2.9055399894714355 0.9651829600334167 -0.10290198773145676 2.8996480216925136e-10 4.130522590628516e-10 6.250934769802541e-10 -10.27859878540039 0.73180091381073 -0.025912299752235413 2.899775142228833e-10 4.130522590628516e-10 6.250807649266221e-10 -2.2216696739196777 -0.7334870100021362 0.2089199721813202 -0.0 0.0 -0.0 -35.302001953125 -60.941497802734375 -32.579097747802734 -2.074850082397461 70.4437026977539 2.6664798259735107 2.5690395832061768 -7.662310600280762 13.545599937438965 -0.0 0.0 -0.0 6.756339073181152 8.06052017211914 1.1077100038528442 -0.05426759645342827 35.529701232910156 -2.245310068130493 21.88249969482422 -20.81800079345703 40.175804138183594
-2.78256375100154 39.11284947074083 18.212609357682275 0.9970998764038086 16.210100173950195 5.2960004806518555 -9.824389457702637 8.406510353088379 -7.9729204177856445 7.107939720153809 -7.181259632110596 -1.9967597723007202 -10.902498245239258 22.871400833129883 -18.963098526000977 19.835098266601562 -18.240398406982422 -34.45499801635742 -0.0 0.0 -0.0 -0.0 0.0 -0.0 -1.2722218027325094e-14 -6.361109013662547e-14 -1.8447216139621386e-13 67.54999542236328 38.98109817504883 -3.1741795539855957 -15.814499855041504 -8.51607894897461 29.28230094909668 -0.013582294806838036 3.3188297748565674 0.46696192026138306 6.015700715344963e-10 -3.484361132954916e-10 -1.013642711433782e-10 1.0400794669962465e-09 -6.006795061352932e-10 -1.774176916491399e-10 6.015827835881282e-10 -3.484361132954916e-10 -1.0137699707479797e-10 7.7309088706970215 5.474880218505859 0.41731396317481995 6.015700715344963e-10 -3.484361132954916e-10 -1.013642711433782e-10 2.9055399894714355 0.9651829600334167 0.10290198773145676 6.015700715344963e-10 -3.484361132954916e-10 -1.013642711433782e-10 10.27859878540039 0.73180091381073 0.025912299752235413 6.015573594808643e-10 -3.484361132954916e-10 -1.0135790817766832e-10 2.2216696739196777 -0.7334870100021362 -0.2089199721813202 -1.2722218027325094e-14 -6.361109013662547e-14 -1.8447216139621386e-13 -77.95499420166016 33.86109924316406 4.616659641265869 22.107397079467773 -15.918900489807129 -44.085899353027344 0.004355399403721094 1.8412200212478638 -0.2588609755039215 9.010002188780675e-10 1.882252131935047e-09 4.720197566143725e-10 1.5594003865970762e-09 3.2564044794014535e-09 8.092157499639541e-10 9.009875068244355e-10 1.882252131935047e-09 4.720324686680044e-10 -7.7309088706970215 5.474880218505859 -0.41731396317481995 9.010002188780675e-10 1.8822394753925664e-09 4.720260848856128e-10 -2.9055399894714355 0.9651829600334167 -0.10290198773145676 9.009875068244355e-10 1.8822394753925664e-09 4.720260848856128e-10 -10.27859878540039 0.73180091381073 -0.025912299752235413 9.010002188780675e-10 1.882252131935047e-09 4.720069890495893e-10 -2.2216696739196777 -0.7334870100021362 0.2089199721813202 -0.0 0.0 -0.0 -35.27839279174805 -61.12240219116211 -32.422603607177734 -2.0924696922302246 70.5521011352539 2.6880295276641846 2.590669870376587 -7.669479846954346 13.60739803314209 -0.0 0.0 -0.0 6.605409622192383 8.156530380249023 1.3004000186920166 -0.0551103837788105 35.531105041503906 -2.250810146331787 21.94029998779297 -20.78339958190918 40.28889846801758
